<svg xmlns="http://www.w3.org/2000/svg" viewBox="0 0 512 512" width="512" height="512">
<defs>
 <linearGradient id="bezel" x1="0" y1="0" x2="1" y2="1"><stop offset="0" stop-color="#6E7178"/><stop offset="0.35" stop-color="#2A2C31"/><stop offset="0.55" stop-color="#8A8D94"/><stop offset="0.8" stop-color="#25272B"/><stop offset="1" stop-color="#5A5D63"/></linearGradient>
 <radialGradient id="face" cx="0.42" cy="0.38" r="0.75"><stop offset="0" stop-color="#2B2D32"/><stop offset="0.7" stop-color="#17181B"/><stop offset="1" stop-color="#0F1012"/></radialGradient>
 <radialGradient id="glow" cx="0.5" cy="0.5" r="0.5"><stop offset="0" stop-color="#FF5A3C" stop-opacity="0.55"/><stop offset="0.5" stop-color="#E03A2F" stop-opacity="0.18"/><stop offset="1" stop-color="#E03A2F" stop-opacity="0"/></radialGradient>
 <linearGradient id="glass" x1="0" y1="0" x2="0.6" y2="1"><stop offset="0" stop-color="#FFFFFF" stop-opacity="0.13"/><stop offset="0.45" stop-color="#FFFFFF" stop-opacity="0.02"/><stop offset="1" stop-color="#FFFFFF" stop-opacity="0"/></linearGradient>
 <linearGradient id="ndl" x1="0" y1="0" x2="1" y2="1"><stop offset="0" stop-color="#FFFFFF"/><stop offset="1" stop-color="#D9D5CC"/></linearGradient>
 <radialGradient id="hub" cx="0.4" cy="0.35" r="0.7"><stop offset="0" stop-color="#7C7F86"/><stop offset="0.6" stop-color="#2E3035"/><stop offset="1" stop-color="#141518"/></radialGradient>
 <clipPath id="dialclip"><circle cx="256" cy="256" r="214"/></clipPath>
 <filter id="soft" x="-20%" y="-20%" width="140%" height="140%"><feGaussianBlur stdDeviation="3"/></filter>
</defs>
<rect width="512" height="512" fill="#0C0D0F"/>
<circle cx="256" cy="256" r="244" fill="#000" opacity="0.6" filter="url(#soft)"/>
<circle cx="256" cy="256" r="240" fill="url(#bezel)"/>
<circle cx="256" cy="256" r="228" fill="none" stroke="#0A0B0C" stroke-width="6"/>
<circle cx="256" cy="256" r="223" fill="none" stroke="#9A9DA4" stroke-width="1.5" stroke-opacity="0.55"/>
<circle cx="256" cy="256" r="214" fill="url(#face)"/>
<g clip-path="url(#dialclip)">
 <path d="M124.5 387.5 A186 186 0 1 1 387.5 387.5" fill="none" stroke="#3A3C42" stroke-width="3"/>
 <path d="M420.2 168.7 A186 186 0 0 1 387.5 387.5" fill="none" stroke="#E03A2F" stroke-width="14" stroke-linecap="butt"/>
 <line x1="117.4" y1="394.6" x2="133.0" y2="379.0" stroke="#DDD9D2" stroke-width="4" stroke-opacity="0.95" stroke-linecap="round"/><line x1="105.9" y1="382.0" x2="114.3" y2="374.9" stroke="#DDD9D2" stroke-width="2" stroke-opacity="0.55" stroke-linecap="round"/><line x1="95.4" y1="368.4" x2="104.5" y2="362.1" stroke="#DDD9D2" stroke-width="2" stroke-opacity="0.55" stroke-linecap="round"/><line x1="86.3" y1="354.0" x2="95.8" y2="348.5" stroke="#DDD9D2" stroke-width="2" stroke-opacity="0.55" stroke-linecap="round"/><line x1="78.4" y1="338.8" x2="88.3" y2="334.2" stroke="#DDD9D2" stroke-width="2" stroke-opacity="0.55" stroke-linecap="round"/><line x1="71.8" y1="323.0" x2="82.2" y2="319.3" stroke="#DDD9D2" stroke-width="2" stroke-opacity="0.55" stroke-linecap="round"/><line x1="66.7" y1="306.7" x2="87.9" y2="301.0" stroke="#DDD9D2" stroke-width="4" stroke-opacity="0.95" stroke-linecap="round"/><line x1="63.0" y1="290.0" x2="73.8" y2="288.1" stroke="#DDD9D2" stroke-width="2" stroke-opacity="0.55" stroke-linecap="round"/><line x1="60.7" y1="273.1" x2="71.7" y2="272.1" stroke="#DDD9D2" stroke-width="2" stroke-opacity="0.55" stroke-linecap="round"/><line x1="60.0" y1="256.0" x2="71.0" y2="256.0" stroke="#DDD9D2" stroke-width="2" stroke-opacity="0.55" stroke-linecap="round"/><line x1="60.7" y1="238.9" x2="71.7" y2="239.9" stroke="#DDD9D2" stroke-width="2" stroke-opacity="0.55" stroke-linecap="round"/><line x1="63.0" y1="222.0" x2="73.8" y2="223.9" stroke="#DDD9D2" stroke-width="2" stroke-opacity="0.55" stroke-linecap="round"/><line x1="66.7" y1="205.3" x2="87.9" y2="211.0" stroke="#DDD9D2" stroke-width="4" stroke-opacity="0.95" stroke-linecap="round"/><line x1="71.8" y1="189.0" x2="82.2" y2="192.7" stroke="#DDD9D2" stroke-width="2" stroke-opacity="0.55" stroke-linecap="round"/><line x1="78.4" y1="173.2" x2="88.3" y2="177.8" stroke="#DDD9D2" stroke-width="2" stroke-opacity="0.55" stroke-linecap="round"/><line x1="86.3" y1="158.0" x2="95.8" y2="163.5" stroke="#DDD9D2" stroke-width="2" stroke-opacity="0.55" stroke-linecap="round"/><line x1="95.4" y1="143.6" x2="104.5" y2="149.9" stroke="#DDD9D2" stroke-width="2" stroke-opacity="0.55" stroke-linecap="round"/><line x1="105.9" y1="130.0" x2="114.3" y2="137.1" stroke="#DDD9D2" stroke-width="2" stroke-opacity="0.55" stroke-linecap="round"/><line x1="117.4" y1="117.4" x2="133.0" y2="133.0" stroke="#DDD9D2" stroke-width="4" stroke-opacity="0.95" stroke-linecap="round"/><line x1="130.0" y1="105.9" x2="137.1" y2="114.3" stroke="#DDD9D2" stroke-width="2" stroke-opacity="0.55" stroke-linecap="round"/><line x1="143.6" y1="95.4" x2="149.9" y2="104.5" stroke="#DDD9D2" stroke-width="2" stroke-opacity="0.55" stroke-linecap="round"/><line x1="158.0" y1="86.3" x2="163.5" y2="95.8" stroke="#DDD9D2" stroke-width="2" stroke-opacity="0.55" stroke-linecap="round"/><line x1="173.2" y1="78.4" x2="177.8" y2="88.3" stroke="#DDD9D2" stroke-width="2" stroke-opacity="0.55" stroke-linecap="round"/><line x1="189.0" y1="71.8" x2="192.7" y2="82.2" stroke="#DDD9D2" stroke-width="2" stroke-opacity="0.55" stroke-linecap="round"/><line x1="205.3" y1="66.7" x2="211.0" y2="87.9" stroke="#DDD9D2" stroke-width="4" stroke-opacity="0.95" stroke-linecap="round"/><line x1="222.0" y1="63.0" x2="223.9" y2="73.8" stroke="#DDD9D2" stroke-width="2" stroke-opacity="0.55" stroke-linecap="round"/><line x1="238.9" y1="60.7" x2="239.9" y2="71.7" stroke="#DDD9D2" stroke-width="2" stroke-opacity="0.55" stroke-linecap="round"/><line x1="256.0" y1="60.0" x2="256.0" y2="71.0" stroke="#DDD9D2" stroke-width="2" stroke-opacity="0.55" stroke-linecap="round"/><line x1="273.1" y1="60.7" x2="272.1" y2="71.7" stroke="#DDD9D2" stroke-width="2" stroke-opacity="0.55" stroke-linecap="round"/><line x1="290.0" y1="63.0" x2="288.1" y2="73.8" stroke="#DDD9D2" stroke-width="2" stroke-opacity="0.55" stroke-linecap="round"/><line x1="306.7" y1="66.7" x2="301.0" y2="87.9" stroke="#DDD9D2" stroke-width="4" stroke-opacity="0.95" stroke-linecap="round"/><line x1="323.0" y1="71.8" x2="319.3" y2="82.2" stroke="#DDD9D2" stroke-width="2" stroke-opacity="0.55" stroke-linecap="round"/><line x1="338.8" y1="78.4" x2="334.2" y2="88.3" stroke="#DDD9D2" stroke-width="2" stroke-opacity="0.55" stroke-linecap="round"/><line x1="354.0" y1="86.3" x2="348.5" y2="95.8" stroke="#DDD9D2" stroke-width="2" stroke-opacity="0.55" stroke-linecap="round"/><line x1="368.4" y1="95.4" x2="362.1" y2="104.5" stroke="#DDD9D2" stroke-width="2" stroke-opacity="0.55" stroke-linecap="round"/><line x1="382.0" y1="105.9" x2="374.9" y2="114.3" stroke="#DDD9D2" stroke-width="2" stroke-opacity="0.55" stroke-linecap="round"/><line x1="394.6" y1="117.4" x2="379.0" y2="133.0" stroke="#DDD9D2" stroke-width="4" stroke-opacity="0.95" stroke-linecap="round"/><line x1="406.1" y1="130.0" x2="397.7" y2="137.1" stroke="#DDD9D2" stroke-width="2" stroke-opacity="0.55" stroke-linecap="round"/><line x1="416.6" y1="143.6" x2="407.5" y2="149.9" stroke="#DDD9D2" stroke-width="2" stroke-opacity="0.55" stroke-linecap="round"/><line x1="425.7" y1="158.0" x2="416.2" y2="163.5" stroke="#DDD9D2" stroke-width="2" stroke-opacity="0.55" stroke-linecap="round"/><line x1="433.6" y1="173.2" x2="423.7" y2="177.8" stroke="#E03A2F" stroke-width="2" stroke-opacity="0.55" stroke-linecap="round"/><line x1="440.2" y1="189.0" x2="429.8" y2="192.7" stroke="#E03A2F" stroke-width="2" stroke-opacity="0.55" stroke-linecap="round"/><line x1="445.3" y1="205.3" x2="424.1" y2="211.0" stroke="#E03A2F" stroke-width="4" stroke-opacity="0.95" stroke-linecap="round"/><line x1="449.0" y1="222.0" x2="438.2" y2="223.9" stroke="#E03A2F" stroke-width="2" stroke-opacity="0.55" stroke-linecap="round"/><line x1="451.3" y1="238.9" x2="440.3" y2="239.9" stroke="#E03A2F" stroke-width="2" stroke-opacity="0.55" stroke-linecap="round"/><line x1="452.0" y1="256.0" x2="441.0" y2="256.0" stroke="#E03A2F" stroke-width="2" stroke-opacity="0.55" stroke-linecap="round"/><line x1="451.3" y1="273.1" x2="440.3" y2="272.1" stroke="#E03A2F" stroke-width="2" stroke-opacity="0.55" stroke-linecap="round"/><line x1="449.0" y1="290.0" x2="438.2" y2="288.1" stroke="#E03A2F" stroke-width="2" stroke-opacity="0.55" stroke-linecap="round"/><line x1="445.3" y1="306.7" x2="424.1" y2="301.0" stroke="#E03A2F" stroke-width="4" stroke-opacity="0.95" stroke-linecap="round"/><line x1="440.2" y1="323.0" x2="429.8" y2="319.3" stroke="#E03A2F" stroke-width="2" stroke-opacity="0.55" stroke-linecap="round"/><line x1="433.6" y1="338.8" x2="423.7" y2="334.2" stroke="#E03A2F" stroke-width="2" stroke-opacity="0.55" stroke-linecap="round"/><line x1="425.7" y1="354.0" x2="416.2" y2="348.5" stroke="#E03A2F" stroke-width="2" stroke-opacity="0.55" stroke-linecap="round"/><line x1="416.6" y1="368.4" x2="407.5" y2="362.1" stroke="#E03A2F" stroke-width="2" stroke-opacity="0.55" stroke-linecap="round"/><line x1="406.1" y1="382.0" x2="397.7" y2="374.9" stroke="#E03A2F" stroke-width="2" stroke-opacity="0.55" stroke-linecap="round"/><line x1="394.6" y1="394.6" x2="379.0" y2="379.0" stroke="#E03A2F" stroke-width="4" stroke-opacity="0.95" stroke-linecap="round"/>
 <circle cx="422.0" cy="167.7" r="46" fill="url(#glow)"/>
 <polygon points="260.2,263.9 423.0,169.7 421.0,165.8 251.8,248.1" fill="#000" opacity="0.45" transform="translate(4,7)" filter="url(#soft)"/><polygon points="260.2,263.9 220.4,282.8 213.9,270.5 251.8,248.1" fill="#000" opacity="0.45" transform="translate(4,7)" filter="url(#soft)"/>
 <polygon points="260.2,263.9 423.0,169.7 421.0,165.8 251.8,248.1" fill="url(#ndl)" /><polygon points="260.2,263.9 220.4,282.8 213.9,270.5 251.8,248.1" fill="url(#ndl)" />
 <circle cx="256" cy="256" r="24" fill="url(#hub)"/>
 <circle cx="256" cy="256" r="24" fill="none" stroke="#A3A6AD" stroke-width="1.2" stroke-opacity="0.6"/>
 <circle cx="256" cy="256" r="7" fill="#0E0F11"/>
 <ellipse cx="190" cy="150" rx="150" ry="95" fill="url(#glass)" transform="rotate(-28 190 150)"/>
</g>
<circle cx="256" cy="256" r="214" fill="none" stroke="#000" stroke-opacity="0.5" stroke-width="4"/>
</svg>